# xmcd
#
# Track frame offsets:
#	150
#	22645
#	42421
#	61737
#	78451
#	102847
#	120885
#	137809
#	163589
#	183344
#	201338
#	220817
#
# Disc length: 3250 seconds
# Revision: 0
# Processed by: cddbd v1.5.2PL0 Copyright (c) Steve Scherf et al.
# Submitted via: dBpowerAMP V12.0
#
DISCID=970cb00c
DTITLE=Cej - Adobe Road
DYEAR=2019
DGENRE=Country
TTITLE0=No Man's Land
TTITLE1=Adobe Road
TTITLE2=Bluebird Dosido
TTITLE3=Just Take It All
TTITLE4=Lazy Joe
TTITLE5=Buck Dancer's Dream
TTITLE6=All Brand New
TTITLE7=Sidewinder
TTITLE8=Where the Wind Blows Free
TTITLE9=Mountain Farewell
TTITLE10=All the Pretty Lights
TTITLE11=Flesh and Blood
EXTD=
EXTT0=
EXTT1=
EXTT2=
EXTT3=
EXTT4=
EXTT5=
EXTT6=
EXTT7=
EXTT8=
EXTT9=
EXTT10=
EXTT11=
PLAYORDER=
